<?xml version="1.0" encoding="UTF-8"?>
<svg width="320px" height="338px" viewBox="0 0 320 338" version="1.1" xmlns="http://www.w3.org/2000/svg" xmlns:xlink="http://www.w3.org/1999/xlink">
    <!-- Generator: Sketch 42 (36781) - http://www.bohemiancoding.com/sketch -->
    <title>pao24</title>
    <desc>Created with Sketch.</desc>
    <defs></defs>
    <g id="Completed" stroke="none" stroke-width="1" fill="none" fill-rule="evenodd">
        <g id="pao24">
            <g transform="translate(-2.000000, -5.000000)">
                <g id="Container" transform="translate(42.000000, 181.000000)" stroke="#000000" stroke-width="5">
                    <path d="M0,23.0194668 C0,21.9133474 0.688488164,20.4549612 1.59337727,19.8045236 C1.59337727,19.8045236 22.3397741,0.0166604984 120,0.0166604984 C217.660226,0.0166604984 238.417811,19.8121838 238.417811,19.8121838 C239.29163,20.4773979 240,21.9176863 240,23.0194668 L240,133.013854 C240,134.119974 239.517763,135.768835 238.813175,136.615715 C238.813175,136.615715 229.519663,158.01666 120,158.01666 C10.480337,158.01666 1.18682452,136.615715 1.18682452,136.615715 C0.531359438,135.732582 0,134.115635 0,133.013854 L0,23.0194668 Z" id="front"></path>
                    <path d="M120,39.0166605 C186.27417,39.0166605 240,31.3009317 240,23.0166605 C240,14.7323893 200.044922,0.0166604984 119.497908,0.0166604984 C38.950894,0.0166604984 0,14.7323893 0,23.0166605 C0,31.3009317 53.72583,39.0166605 120,39.0166605 Z" id="opening"></path>
                </g>
                <g id="Lid" transform="translate(130.000000, 90.016660) rotate(-30.000000) translate(-130.000000, -90.016660) translate(-5.000000, 64.016660)" stroke="#000000" stroke-width="5">
                    <path d="M270,10 L270,42 C270,42 235.128638,52 135,52 C34.871362,52 -5.68434189e-14,42 -5.68434189e-14,42 L-5.68434189e-14,10.0000052 C-5.68434189e-14,4.4771525 60.4415588,-2.84217094e-14 135,-2.84217094e-14 C209.558441,-2.84217094e-14 270,4.4771525 270,10 Z" id="front"></path>
                    <ellipse id="top" cx="135" cy="10" rx="135" ry="10"></ellipse>
                </g>
                <path d="M93.58,297 L93.58,291.18 L108.04,278.88 C111.000015,276.399988 113.049994,274.350008 114.19,272.73 C115.330006,271.109992 115.9,269.380009 115.9,267.54 C115.9,265.53999 115.260006,263.950006 113.98,262.77 C112.699994,261.589994 111.08001,261 109.12,261 C107.279991,261 105.630007,261.499995 104.17,262.5 C102.709993,263.500005 101.120009,265.099989 99.4,267.3 L94.18,263.22 C96.3400108,260.179985 98.5699885,257.950007 100.87,256.53 C103.170012,255.109993 106.099982,254.4 109.66,254.4 C113.780021,254.4 117.119987,255.549988 119.68,257.85 C122.240013,260.150012 123.52,263.179981 123.52,266.94 L123.52,267.06 C123.52,270.180016 122.720008,272.839989 121.12,275.04 C119.519992,277.240011 116.68002,279.999983 112.6,283.32 L103.96,290.52 L123.94,290.52 L123.94,297 L93.58,297 Z M152.14,297 L152.14,287.58 L130.96,287.58 L129.58,282.3 L152.92,254.7 L159.22,254.7 L159.22,281.52 L165.22,281.52 L165.22,287.58 L159.22,287.58 L159.22,297 L152.14,297 Z M138.34,281.52 L152.14,281.52 L152.14,264.9 L138.34,281.52 Z M191.68,297 L191.68,255 L199.54,255 L212.32,274.86 L225.1,255 L232.96,255 L232.96,297 L225.58,297 L225.58,266.88 L212.32,286.68 L212.08,286.68 L198.94,267 L198.94,297 L191.68,297 Z" id="24-M" fill="#000000"></path>
            </g>
        </g>
    </g>
</svg>