<?xml version="1.0" encoding="UTF-8"?>
<svg width="320px" height="338px" viewBox="0 0 320 338" version="1.1" xmlns="http://www.w3.org/2000/svg" xmlns:xlink="http://www.w3.org/1999/xlink">
    <!-- Generator: Sketch 42 (36781) - http://www.bohemiancoding.com/sketch -->
    <title>pao36</title>
    <desc>Created with Sketch.</desc>
    <defs></defs>
    <g id="Completed" stroke="none" stroke-width="1" fill="none" fill-rule="evenodd">
        <g id="pao36">
            <g transform="translate(-2.000000, -5.000000)">
                <g id="Container" transform="translate(42.000000, 181.000000)" stroke="#000000" stroke-width="5">
                    <path d="M0,23.0194668 C0,21.9133474 0.688488164,20.4549612 1.59337727,19.8045236 C1.59337727,19.8045236 22.3397741,0.0166604984 120,0.0166604984 C217.660226,0.0166604984 238.417811,19.8121838 238.417811,19.8121838 C239.29163,20.4773979 240,21.9176863 240,23.0194668 L240,133.013854 C240,134.119974 239.517763,135.768835 238.813175,136.615715 C238.813175,136.615715 229.519663,158.01666 120,158.01666 C10.480337,158.01666 1.18682452,136.615715 1.18682452,136.615715 C0.531359438,135.732582 0,134.115635 0,133.013854 L0,23.0194668 Z" id="front"></path>
                    <path d="M120,39.0166605 C186.27417,39.0166605 240,31.3009317 240,23.0166605 C240,14.7323893 200.044922,0.0166604984 119.497908,0.0166604984 C38.950894,0.0166604984 0,14.7323893 0,23.0166605 C0,31.3009317 53.72583,39.0166605 120,39.0166605 Z" id="opening"></path>
                </g>
                <g id="Lid" transform="translate(130.000000, 90.016660) rotate(-30.000000) translate(-130.000000, -90.016660) translate(-5.000000, 64.016660)" stroke="#000000" stroke-width="5">
                    <path d="M270,10 L270,42 C270,42 235.128638,52 135,52 C34.871362,52 0,42 0,42 L0,10.0000052 C0,4.4771525 60.4415588,0 135,0 C209.558441,0 270,4.4771525 270,10 Z" id="front"></path>
                    <ellipse id="top" cx="135" cy="10" rx="135" ry="10"></ellipse>
                </g>
                <path d="M109.9,297.72 C103.219967,297.72 97.8600202,295.260025 93.82,290.34 L98.98,285.54 C102.100016,289.220018 105.779979,291.06 110.02,291.06 C112.10001,291.06 113.829993,290.470006 115.21,289.29 C116.590007,288.109994 117.28,286.580009 117.28,284.7 L117.28,284.58 C117.28,282.53999 116.410009,280.950006 114.67,279.81 C112.929991,278.669994 110.580015,278.1 107.62,278.1 L104.2,278.1 L103,273.48 L114.34,261.42 L96.16,261.42 L96.16,255 L123.94,255 L123.94,260.52 L112.24,272.52 C115.840018,273.000002 118.799988,274.189991 121.12,276.09 C123.440012,277.990009 124.6,280.739982 124.6,284.34 L124.6,284.46 C124.6,288.340019 123.230014,291.519988 120.49,294 C117.749986,296.480012 114.220022,297.72 109.9,297.72 Z M148.54,297.72 C143.739976,297.72 139.840015,296.260015 136.84,293.34 C135.159992,291.619991 133.890004,289.520012 133.03,287.04 C132.169996,284.559988 131.74,281.30002 131.74,277.26 L131.74,277.14 C131.74,270.459967 133.309984,264.980021 136.45,260.7 C139.590016,256.419979 144.019971,254.28 149.74,254.28 C154.420023,254.28 158.699981,255.839984 162.58,258.96 L158.62,264.66 C155.459984,262.219988 152.420015,261 149.5,261 C146.459985,261 144.070009,262.229988 142.33,264.69 C140.589991,267.150012 139.620001,270.35998 139.42,274.32 C142.300014,271.519986 145.639981,270.12 149.44,270.12 C153.680021,270.12 157.189986,271.299988 159.97,273.66 C162.750014,276.020012 164.14,279.23998 164.14,283.32 L164.14,283.44 C164.14,287.560021 162.650015,290.969987 159.67,293.67 C156.689985,296.370014 152.980022,297.72 148.54,297.72 Z M148.36,291.36 C150.920013,291.36 152.959992,290.640007 154.48,289.2 C156.000008,287.759993 156.76,285.940011 156.76,283.74 L156.76,283.62 C156.76,281.499989 155.970008,279.750007 154.39,278.37 C152.809992,276.989993 150.740013,276.3 148.18,276.3 C145.619987,276.3 143.560008,277.009993 142,278.43 C140.439992,279.850007 139.66,281.59999 139.66,283.68 L139.66,283.8 C139.66,285.960011 140.459992,287.759993 142.06,289.2 C143.660008,290.640007 145.759987,291.36 148.36,291.36 Z M191.08,297 L191.08,255 L198.94,255 L211.72,274.86 L224.5,255 L232.36,255 L232.36,297 L224.98,297 L224.98,266.88 L211.72,286.68 L211.48,286.68 L198.34,267 L198.34,297 L191.08,297 Z" id="36-M" fill="#000000"></path>
            </g>
        </g>
    </g>
</svg>